<?xml version="1.0" encoding="utf-8"?>
<!-- Generated by IcoMoon.io -->
<svg version="1.1" xmlns="http://www.w3.org/2000/svg" xmlns:xlink="http://www.w3.org/1999/xlink" width="752" height="32" viewBox="0 0 752 32">
<svg id="icon-loveit_full" width="32" height="32" viewBox="0 0 32 32" x="0" y="0">
<path fill="#f47771" d="M9.338 5.648c-2.426 0.467-4.236 2.13-4.965 4.555-0.273 0.888-0.273 2.779 0 3.792 0.604 2.232 2.289 4.373 6.047 7.698 2.403 2.118 5.409 4.612 5.569 4.612 0.41 0 6.457-5.238 8.495-7.357 2.437-2.54 3.416-4.544 3.416-6.969-0.011-3.075-1.959-5.535-4.965-6.241-2.027-0.478-4.225 0.216-6.138 1.925-0.831 0.752-0.74 0.752-1.594-0.046-1.355-1.253-2.801-1.879-4.578-1.97-0.547-0.023-1.127-0.023-1.287 0z"></path>
</svg>
</svg>
